<svg version="1.0" xmlns="http://www.w3.org/2000/svg" width="878.667" height="313.333" viewBox="0 0 659 235"><path d="M0 117.5V235h659V0H0v117.5zM628 102v56H28V46h600v56zM63.4 175.1c5.4 4.3 1.6 11.9-6 11.9-3.4 0-3.4.1-3.4 4.5 0 3.8-.3 4.5-2 4.5-1.9 0-2-.7-2-11.5V173h5.4c3.9 0 6 .6 8 2.1zm44.8 2.6c.3 4.8.3 4.8 4.1 5.1l3.7.3v-5c0-4.4.3-5.1 2-5.1 1.9 0 2 .7 2 11.5 0 10.7-.1 11.5-1.9 11.5-1.7 0-2-.8-2.3-4.8-.3-4.7-.3-4.7-3.8-4.7s-3.5 0-3.8 4.7c-.3 4-.6 4.8-2.3 4.8-1.8 0-1.9-.8-1.9-11.5s.1-11.5 1.9-11.5c1.7 0 2 .8 2.3 4.7zM172 175c2.7 2.7 2.9 16.3.3 19.2-2 2.2-8 2.4-11.1.2-1.9-1.3-2.2-2.4-2.2-9.3 0-7.7.9-10.3 4-11.4 3.2-1.2 7.1-.6 9 1.3zm56-.1c0 1.4-.8 2.1-2.7 2.3l-2.8.3-.3 9.2c-.2 8.5-.4 9.3-2.2 9.3-1.8 0-2-.7-2-9.5V177h-3c-1.8 0-3-.5-3-1.3 0-2.3 1.1-2.7 8.7-2.7 6.5 0 7.3.2 7.3 1.9zm49.3-.8c3.3 1.8 3.7 2.8 3.7 10.8 0 5.5-.4 7.9-1.7 9.3-2 2.2-8 2.4-11.1.2-1.9-1.3-2.2-2.4-2.2-9.2 0-8.2.4-9.2 3.5-11 2.6-1.5 5.1-1.5 7.8-.1zm56.5 1.6c2.4 2.5 2.5 2.8.8 3.1-1 .2-2.3-.1-2.9-.7-1.5-1.5-5.2-1.4-6.6.3-.7.9-1.1 3.8-.9 7.3l.3 5.8h3.5c3.1 0 3.5-.3 3.8-2.8.3-2.2-.1-2.7-1.7-2.7-1.2 0-2.1-.7-2.1-1.5 0-1.1 1.1-1.5 4-1.5h4v13h-5.7c-3.2 0-6.3-.4-6.9-.8-2.3-1.5-3.4-5.2-3.4-11.2 0-5.1.4-6.5 2.5-8.5 3.3-3.4 7.8-3.3 11.3.2zm54.7-.2c1.4 1.3 2.5 3.2 2.5 4.2 0 2.5-2.8 6.3-4.5 6.3-2.7 0-2.4 1.8 1.1 5.9l3.6 4.1h-2.6c-1.8 0-3.5-1.3-6.1-4.6l-3.5-4.7v4.7c0 3.9-.3 4.6-2 4.6-1.9 0-2-.7-2-11.5V173h5.5c4.6 0 6 .4 8 2.5zm52.4 7c1.3 5.2 2.5 10.4 2.8 11.5.4 1.5 0 2-1.6 2-1.2 0-2.1-.6-2.1-1.5 0-1-1.1-1.5-3.5-1.5s-3.5.5-3.5 1.5c0 .8-.9 1.5-2 1.5s-2-.3-2-.6c0-1.1 5.1-20.8 5.6-21.6.3-.4 1.3-.8 2.3-.8 1.3 0 2.2 2 4 9.5zm54.9-7.9c1.5 1 2.2 2.5 2.2 4.8 0 4.8-1.9 6.7-7.3 7.3l-4.7.6v4.3c0 3.7-.3 4.4-2 4.4-1.9 0-2-.7-2-10.8 0-6 .3-11.2.7-11.5 1.3-1.3 10.9-.7 13.1.9zm45 3.7c.3 4.6.4 4.7 3.7 4.7 3.3 0 3.4-.1 3.7-4.7.2-3.6.7-4.9 2.1-5.1 1.5-.3 1.7.7 1.7 11.2 0 10.9-.1 11.6-2 11.6-1.7 0-2-.7-2-5v-5h-7v5c0 4.3-.3 5-2 5-1.9 0-2-.7-2-11.6 0-10.5.2-11.5 1.8-11.2 1.3.2 1.8 1.5 2 5.1zm55.2-1.6c.8 1.8 1.8 3.3 2.1 3.3.3 0 1.3-1.6 2.2-3.5 1.1-2.3 2.4-3.5 3.6-3.5 1.9 0 1.9.4-.9 6.6-2 4.4-3 8.2-3 11.5 0 4.2-.3 4.9-2 4.9s-2-.7-2-5.3c0-3.4-.9-7-2.5-10.5-3-6.4-3.1-7.5-.7-7 .9.2 2.4 1.8 3.2 3.5z"/><path d="M35 101.5V151h586V52H35v49.5zM96 74v7H81.7c-12.9 0-14.6.2-16.1 1.9-1.1 1.2-1.6 3.1-1.4 5.2.4 4.7 3.3 5.9 14.9 5.9 8.7 0 9.9.2 14 2.9 6.4 4 8.4 8.5 8.4 18.7 0 7.1-.3 8.5-2.7 12.1-4.8 7.2-8.6 8.3-29.1 8.3H52v-12h13.3c15.1-.1 20.5-1 23-4.1 2.4-3 2.2-7.5-.6-10.3-2-2-3.6-2.4-13-2.8-12.7-.7-18.4-2.9-21.7-8.6-4.7-7.9-3.4-19.6 2.9-25.6 4.7-4.5 9.1-5.5 25.4-5.6H96v7zm37.8 27.7l.2 34.3h-13V66.9l6.3.3 6.2.3.3 34.2zm129-31c2.9 1.8 5.4 4.4 6.9 7.3 2.3 4.4 2.4 5 2.1 25.2l-.3 20.6-3.1 3.9c-4.7 5.9-10.3 8.3-19.6 8.3-11.6 0-17.8-3.1-21.9-11.2-1.7-3.3-1.9-6-1.9-22.9 0-22.2 1-25.9 8.1-30.6 5.3-3.5 9.1-4.3 17.8-3.8 5.9.3 8.2.9 11.9 3.2zM316 89.5l11.5 22.4.3-22.5.2-22.4h12v69.1l-6.1-.3-6.1-.3-11.2-21.5-11.1-21.5-.3 21.8-.2 21.7h-13v-33.8c0-18.6.3-34.2.7-34.5.3-.4 3.1-.7 6.2-.7h5.6L316 89.5zM407 73v6h-35v17h35v11l-17.2.2-17.3.3v17l17.3.3 17.2.2v11h-47V67h47v6zm44.2 16.8l11.7 22.7.1-22.8V67h12v69.1l-6.1-.3-6.1-.3-11.2-21.5-11.1-21.5-.3 21.7-.2 21.8h-13v-33.8c0-18.6.3-34.2.7-34.5.3-.4 3.1-.7 6.2-.7h5.6l11.7 22.8zm56.8-8.9l.5 13.4 10.4-13.7L529.2 67h12.9l-1.9 2.7c-1.1 1.6-6.8 9.1-12.6 16.7S517 100.7 517 101.2c0 .9 7.6 11.5 21.6 30l3.6 4.8h-6.9l-6.8-.1-10-13.5-10-13.5-.3 13.6-.3 13.5H495V66.9l6.3.3 6.2.3.5 13.4zm86.7-11.6c4.2 2.2 9 8 10.3 12.4.8 2.4 1 10.5.8 22.5l-.3 18.6-3 4.3c-4.6 6.4-10 8.9-20 8.9-10.2 0-16.6-2.8-20.7-9.1-3.5-5.5-4.1-9.4-3.6-28.5.3-14.1.6-16.4 2.6-20.1 2.5-4.8 7.1-8.7 12.2-10.2 4.7-1.4 18-.7 21.7 1.2zM174.1 92.5c3 13.5 5.6 24.5 5.9 24.5.3 0 2.9-11 5.9-24.5l5.5-24.5H206v68h-10l-.1-22.3c0-12.2-.3-21.5-.6-20.7-.4.8-2.7 10.7-5.3 22l-4.7 20.5-5.5.3-5.4.3-4.4-20.8c-2.3-11.4-4.7-21.5-5.1-22.3-.5-.8-.9 8.4-.9 20.7V136h-10V68h14.7l5.4 24.5z"/><path d="M241.4 80.1c-3.8 1.9-4.4 5.2-4.4 22.3 0 15 .2 16.5 2.1 19 1.9 2.4 2.6 2.6 9.4 2.6 6.8 0 7.5-.2 9.4-2.6 1.9-2.5 2.1-4 2.1-19.9 0-21.2-.2-21.7-10.1-22.2-3.5-.1-7.4.2-8.5.8zm332.1 1.4c-2.5 2.4-2.5 2.6-2.5 20.3 0 17.4.1 17.9 2.3 20 3.3 3.1 14.7 3.2 17.7.2 2.9-2.9 3.2-5.2 2.8-22.4l-.3-15.8-2.8-2.4c-2.3-2-3.9-2.4-8.8-2.4-5 0-6.4.4-8.4 2.5zM54 180c0 2.5.4 3 2.4 3 3.7 0 5.6-1 5.6-3s-1.9-3-5.6-3c-2 0-2.4.5-2.4 3zm109.4-1.6c-.3.7-.4 4-.2 7.2.3 5.8.4 5.9 3.4 6.2 2.6.3 3.3-.1 3.8-2 .9-3.5.7-8.7-.4-10.9-1.2-2.2-5.8-2.6-6.6-.5zm107 0c-.3.7-.4 4-.2 7.2.3 5.8.4 5.9 3.4 6.2 2.6.3 3.3-.1 3.8-2 .9-3.5.7-8.7-.4-10.9-1.2-2.2-5.8-2.6-6.6-.5zM379 180c0 2.6.3 3 2.9 3 3.7 0 5.9-2.4 4.1-4.5-.7-.8-2.5-1.5-4.1-1.5-2.6 0-2.9.4-2.9 3zm57 .6c0 .5-.4 2.6-.9 4.6-.8 3.5-.7 3.8 1.4 3.8 2.2 0 2.2-.2 1.3-4.2-.9-4.1-1.8-6.1-1.8-4.2zm50-.6c0 3 .2 3.1 3.8 2.8 3.2-.3 3.7-.6 3.7-2.8 0-2.2-.5-2.5-3.7-2.8-3.6-.3-3.8-.2-3.8 2.8z"/></svg>