<svg version="1.0" xmlns="http://www.w3.org/2000/svg" width="878.667" height="313.333" viewBox="0 0 659 235"><path d="M28 102v56h600V46H28v56zm593-.5V151H35V52h586v49.5z"/><path d="M62.6 68.5c-8.5 3-13.3 11.3-12.3 21 1.2 12.1 7.4 16.4 24.4 17.3 9.4.4 11 .8 13 2.8 2.8 2.8 3 7.3.6 10.3-2.5 3.1-7.9 4-23 4.1H52v12h17.5c19.2 0 22.1-.6 27-5.6 3.9-4.2 5.5-8.5 5.5-15.4 0-8.3-3-14.4-8.9-18.1-4.1-2.7-5.3-2.9-14-2.9-11.8 0-14.5-1.1-14.9-6.1-.5-6.3.9-6.9 17.4-6.9H96V67H81.3c-9.9.1-16.1.5-18.7 1.5zm58.4 33V136h13l-.2-34.3-.3-34.2-6.2-.3-6.3-.3v34.6zm119.4-33.6c-4.9 1.3-9.3 4.3-12.2 8.5-2.7 3.9-2.7 4-3 24.2-.3 18.5-.1 20.6 1.6 24.1 4.2 8.2 10.3 11.3 22 11.3 9.3 0 14.9-2.4 19.6-8.3l3.1-3.9.3-20.6c.3-20.2.2-20.8-2.1-25.2-3.5-6.7-9.5-10-18.8-10.5-4.1-.2-8.8-.1-10.5.4zm17.7 14c1.7 2.1 1.9 4.2 1.9 19.6 0 15.9-.2 17.4-2.1 19.9-1.9 2.4-2.6 2.6-9.4 2.6-6.8 0-7.5-.2-9.4-2.6-1.9-2.5-2.1-4-2.1-19 0-9.9.4-17.3 1.1-18.8 1.6-3.5 4.6-4.6 11.8-4.3 5.2.3 6.7.7 8.2 2.6zm34.6-14.2c-.4.3-.7 15.9-.7 34.5V136h13v-21.8c.1-17.5.3-21.3 1.3-19.7.6 1.1 5.8 10.8 11.3 21.5l10.2 19.5 6.1.3 6.1.3V67h-12l-.2 22.4-.3 22.5L316 89.5 304.5 67h-5.6c-3.1 0-5.9.3-6.2.7zm67.3 33.8V136h47v-11l-17.2-.2-17.3-.3v-17l17.3-.3 17.2-.2V96h-35V79h35V67h-47v34.5zm67.7-33.8c-.4.3-.7 15.9-.7 34.5V136h13l.2-21.8.3-21.7 11.1 21.5 11.2 21.5 6.1.3 6.1.3V67h-12v45.5l-11.8-22.7L439.5 67h-5.6c-3.1 0-5.9.3-6.2.7zm67.3 33.8V136h12.9l.3-13.5.3-13.6 10 13.5 10 13.5 6.8.1h6.9l-3.6-4.8c-16.6-22.1-21.7-29.4-21.2-30.7.3-.8 4.7-6.9 9.9-13.7 5.1-6.8 10.6-14 12.1-16.1l2.8-3.7h-12.9l-10.4 13.7-10.4 13.6-.5-13.4-.5-13.4-6.2-.3-6.3-.3v34.6zm78-33.4c-5.1 1.5-9.7 5.4-12.3 10.2-2 3.8-2.2 5.9-2.5 21.3-.4 19.7.4 23.8 5.4 29.4 5.1 5.6 10.4 7.4 20.7 6.8 9.8-.5 13.8-2.5 18.3-9l2.9-4.1.3-18.6c.2-11.9 0-20-.8-22.4-1.3-4.4-6.1-10.2-10.3-12.4-3.7-1.9-17-2.6-21.7-1.2zm17.7 13.3l2.8 2.4.3 15.8c.4 17.2.1 19.5-2.8 22.4-3 3-14.4 2.9-17.7-.2-2.2-2.1-2.3-2.6-2.3-20 0-17.7 0-17.9 2.5-20.3 2-2.1 3.4-2.5 8.4-2.5 4.9 0 6.5.4 8.8 2.4zM154 102v34h10v-22.3c0-12.2.4-21.5.9-20.7.4.8 2.7 10.9 5.1 22.3l4.4 20.8 5.5-.3 5.4-.3 2.4-10.5c1.3-5.8 3.6-15.7 5.1-22l2.7-11.5.3 22.2.2 22.3h10V68h-14.6L186 92.4c-3 13.5-5.8 24.2-6.1 23.8-.6-.6-10.9-45.7-10.9-47.5 0-.4-3.4-.7-7.5-.7H154v34zM50 184.5c0 10.8.1 11.5 2 11.5 1.7 0 2-.7 2-4.5 0-4.4 0-4.5 3.4-4.5 4.5 0 8.6-3.3 8.6-7 0-4.4-4-7-10.6-7H50v11.5zm11.5-4.5c0 2.2-.5 2.5-3.7 2.8-3.6.3-3.8.2-3.8-2.8s.2-3.1 3.8-2.8c3.2.3 3.7.6 3.7 2.8zm42.5 4.5c0 10.7.1 11.5 1.9 11.5 1.7 0 2-.8 2.3-4.8.3-4.7.3-4.7 3.8-4.7s3.5 0 3.8 4.7c.3 4 .6 4.8 2.3 4.8 1.8 0 1.9-.8 1.9-11.5 0-10.8-.1-11.5-2-11.5-1.7 0-2 .7-2 5.1v5l-3.7-.3c-3.8-.3-3.8-.3-4.1-5.1-.3-3.9-.6-4.7-2.3-4.7-1.8 0-1.9.8-1.9 11.5zm58.5-10.3c-3.1 1.8-3.5 2.8-3.5 10.5 0 8.8 1.7 11.3 7.8 11.3 5.8 0 7.2-2.1 7.2-11.1 0-8-.4-9-3.7-10.8-2.7-1.4-5.2-1.4-7.8.1zm7.5 4.7c1.1 2.2 1.3 7.4.4 10.9-.5 1.9-1.2 2.3-3.8 2-3-.3-3.1-.4-3.4-6.2-.2-3.2-.1-6.5.2-7.2.8-2.1 5.4-1.7 6.6.5zm42.7-5.2c-1.7 1.6-.5 3.3 2.3 3.3h3v9.5c0 8.8.2 9.5 2 9.5s2-.8 2.2-9.3l.3-9.2 2.8-.3c1.9-.2 2.7-.9 2.7-2.3 0-1.7-.8-1.9-7.3-1.9-4.1 0-7.7.3-8 .7zm55.9 1.4c-2.4 1.9-2.6 2.7-2.6 9.3 0 9.3 1.5 11.6 7.4 11.6 6.3 0 7.6-1.9 7.6-11.1 0-8-.4-9-3.7-10.8-3.2-1.6-5.7-1.4-8.7 1zm8.4 3.8c1.1 2.2 1.3 7.4.4 10.8-.5 1.8-1.4 2.3-4 2.3H270v-6.8c0-3.8.3-7.2.7-7.5 1.3-1.4 5.3-.6 6.3 1.2zm45.5-3.4c-2.1 2-2.5 3.4-2.5 8.5 0 6 1.1 9.7 3.4 11.2.6.4 3.7.8 6.9.8h5.7v-13h-4c-2.9 0-4 .4-4 1.5 0 .8.9 1.5 2.1 1.5 1.6 0 2 .5 1.7 2.7-.3 2.5-.7 2.8-3.8 2.8-3.5 0-3.5 0-3.8-4.9-.5-7.6.3-9.6 3.8-9.6 1.6 0 3.2.4 3.5 1 .8 1.3 4.5 1.3 4.5.1 0-1.8-5.3-5.1-8.2-5.1-1.7 0-3.9 1-5.3 2.5zm52.5 9c0 10.8.1 11.5 2 11.5 1.7 0 2-.7 2-4.3l.1-4.2 3.7 4.3c2.4 2.7 4.5 4.2 6 4.2 2.3 0 2.2-.2-1.2-4.1-3.5-4.1-3.8-5.9-1.1-5.9 1.7 0 4.5-3.8 4.5-6.3 0-1-1.1-2.9-2.5-4.2-2-2.1-3.4-2.5-8-2.5H375v11.5zm11-6c1.8 2.1-.4 4.5-4.1 4.5-2.6 0-2.9-.4-2.9-3s.3-3 2.9-3c1.6 0 3.4.7 4.1 1.5zm46.3 3.2c-3.9 15.4-3.8 14.3-1.4 14.3 1.2 0 2.1-.6 2.1-1.5 0-1 1.1-1.5 3.5-1.5s3.5.5 3.5 1.5c0 .9.9 1.5 2.1 1.5 2.3 0 2.4.2-1.4-14.1-1.8-6.7-2.6-8.5-4.2-8.7-1.7-.2-2.3.9-4.2 8.5zm5.5 3.1c.9 4 .9 4.2-1.3 4.2-2.1 0-2.2-.3-1.4-3.8.5-2 .9-4.1.9-4.6 0-1.9.9.1 1.8 4.2zm45-11.2c-.5.4-.8 5.6-.8 11.6 0 10.1.1 10.8 2 10.8 1.7 0 2-.7 2-4.4v-4.3l4.5-.5c2.5-.3 5.2-1.1 6-1.8 2-1.7 2-8.4-.1-10.1-1.8-1.4-12.5-2.5-13.6-1.3zm10.7 6.4c0 2.2-.5 2.5-3.7 2.8-3.6.3-3.8.2-3.8-2.8s.2-3.1 3.8-2.8c3.2.3 3.7.6 3.7 2.8zm43.5 4.4c0 10.9.1 11.6 2 11.6 1.7 0 2-.7 2-5v-5h7v5c0 4.3.3 5 2 5 1.9 0 2-.7 2-11.6 0-10.5-.2-11.5-1.7-11.2-1.4.2-1.9 1.5-2.1 5.1-.3 4.6-.4 4.7-3.7 4.7-3.3 0-3.4-.1-3.7-4.7-.2-3.6-.7-4.9-2-5.1-1.6-.3-1.8.7-1.8 11.2zm54-10.4c0 .6 1.1 3.3 2.5 6 1.8 3.5 2.5 6.5 2.5 10.5 0 4.8.2 5.5 2 5.5 1.7 0 2-.7 2-4.9 0-3.3 1-7.1 3-11.5 2.8-6.2 2.8-6.6.9-6.6-1.2 0-2.5 1.2-3.6 3.5-.9 1.9-2 3.5-2.4 3.5-.4 0-1.3-1.6-1.9-3.5-.8-2.4-1.8-3.5-3.1-3.5-1 0-1.9.5-1.9 1z"/></svg>